# xmcd
#
# Track frame offsets: 
#        150
#        17475
#        34655
#        59175
#        72675
#        89925
#        100262
#        124437
#        141037
#        159562
#        170525
#        186262
#
# Disc length: 2654 seconds
#
# Revision: 0
# Processed by: cddbd v1.4PL0 Copyright (c) Steve Scherf et al.
# Submitted via: ExactAudioCopy v0.90b4
#
DISCID=b80a5c0c
DTITLE=Paul Ubana Jones - A Change Of Season
DYEAR=1994
DGENRE=Blues
TTITLE0=A Change Of Season
TTITLE1=Give It All
TTITLE2=Angel
TTITLE3=Moonflower
TTITLE4=Next Time Around
TTITLE5=Kalimba
TTITLE6=Summertime
TTITLE7=The Licht Which I Hold
TTITLE8=Fresh New Presents
TTITLE9=High Rollin' Man
TTITLE10=So Bad
TTITLE11=Lose A Stranger, Win A Friend
EXTD=
EXTT0=
EXTT1=
EXTT2=
EXTT3=
EXTT4=
EXTT5=
EXTT6=
EXTT7=
EXTT8=
EXTT9=
EXTT10=
EXTT11=
PLAYORDER=
